<svg xmlns="http://www.w3.org/2000/svg" width="80" height="80" viewBox="0 0 80 80"><g fill="none" fill-rule="evenodd"><path fill="#031E2F" d="M39.867 68.578l-.865-.68c-.817-.035-1.91-.333-2.162-.413l-.488-.155.808-2.225a26.943 26.943 0 0 1-13.504-5.347 27.335 27.335 0 0 1-8.978-11.931c-.16-.418.088-1.053.322-1.29.039-.038.071-.07.282-.182a1.934 1.934 0 0 1-.854-.579 3.525 3.525 0 0 1-.616-1.012 6.996 6.996 0 0 1-.335-1.063c-.054-.23-.105-.482-.157-.772l-.084-.527a17.41 17.41 0 0 1-.054-.412l-.05-.488a15.963 15.963 0 0 1-.035-.436l-.025-.481c-.006-.157-.01-.313-.013-.476l.006-.547c.018-.303.059-.733.064-.781l.014-.15.096-.117c.083-.1.833-.978 1.683-.978.076 0 .196.01.365.029-.125-.608-.159-1.393-.07-1.708l.279-.997.059.085c.179-1.18.443-2.351.788-3.485-.033-.625.09-1.543.25-1.863l.463-.93.162.369a24.894 24.894 0 0 1 1.824-3.515c.076-.718.715-1.859 1.004-2.124l.763-.7.017.328a25.045 25.045 0 0 1 2.464-2.624c.011-.058.022-.108.032-.15.167-.717 1.095-1.84 1.461-2.068l.879-.543-.125.923a24.68 24.68 0 0 1 3.464-2.1c.053-.095.098-.17.136-.228.385-.587 1.586-1.29 1.99-1.373l1.01-.208-.325.622a24.524 24.524 0 0 1 2.83-.805c.635-1.092 2.007-1.897 3.774-2.21l.532-.095.001.016c.107-.01.213-.02.313-.027l.505-.04v.016l.05-.002c.12-.005.208-.004.306 0l.067.003v-.005l.102-.001.361.02v.009l.065.005c.084.007.167.014.25.023l.001-.006.107.009.35.051v.01l.078.014c1.776.316 3.151 1.126 3.781 2.227.96.214 1.917.49 2.849.82l-.344-.655 1.012.209c.404.083 1.605.786 1.989 1.373.045.07.1.161.166.281a24.684 24.684 0 0 1 3.361 2.048l-.112-.823.879.545c.35.217 1.239 1.293 1.4 1.978l.016.08c.931.851 1.803 1.781 2.596 2.767l.022-.412.763.698c.304.279.978 1.502 1.01 2.206l.002.052a24.964 24.964 0 0 1 1.778 3.468l.201-.455.463.929c.17.342.312 1.373.232 2.058.324 1.1.574 2.236.744 3.378l.122-.176.278 1c.083.298.056 1.03-.054 1.623.407.014.923.078 1.28.29.294.177.723.598.77.646l.133.13.078 1.117-.004.595-.02.501-.035.54-.038.411-.066.544-.057.386-.109.596c0 .002-.057.282-.09.42-.091.388-.2.736-.335 1.064a3.545 3.545 0 0 1-.616 1.011 1.951 1.951 0 0 1-.825.57c.194.105.238.144.274.175.438.383.462.875.338 1.206a27.32 27.32 0 0 1-9.023 12.068 26.93 26.93 0 0 1-13.647 5.367l.807 2.236-.536.157c-.82.244-1.596.38-2.304.405l-.766.663z"/><path fill="#FFF" d="M39.955 49.88c-.354-.244-.459-.497-.488-.66a1.446 1.446 0 0 1-.005-.129c-.024-.893.135-3.978.135-3.978s-1.242-.201-2.351-.745l-.073 4.683s.004.004.004.01a.101.101 0 0 0-.004.03l-.005.13c-.03.162-.137.415-.488.659-.438.298-.478.477-.435 1.1.04.622.28.91.777.89h.122s.503-.006 1.173-.009c.672.003 1.172.01 1.172.01v-.002l.121.002c.498.02.741-.269.782-.89.04-.624 0-.803-.437-1.101zm8.963-8.207c-.538-.375-.894.045-.967.151 0 0-1.941 4.22-6.747 4.01 0 0-.04-.006-.1 0-.43-.028-1.041-.08-1.125-.14l-.074 2.132s.495.054.978.082a1.4 1.4 0 0 0 .187.011c.478.017 5.254.335 8.075-5.24 0 0 .312-.63-.227-1.006zM46.5 34.948s.054-.499-.875-2.41c0 0-.27-.661-1.037-.87-.587-.16-1.342-.348-1.342-.348s-.697-.376-1.473-.556l.004-.01s-.971-.244-1.876-.26l-.032 2.115s.247-.092 1.206-.068c.457.045 1.275.055 2.436.934 1.407 1.065 1.917 1.888 1.917 1.888s.412.623.786.5c.37-.128.286-.915.286-.915zm-12.926 3.528c.15 1.305 1.701 5.094 5.37 6.089 3.67.995 6.264-.83 7.03-1.95 0 0 .658-.642.103-1.14-.558-.497-1.01.122-1.032.103-.021-.021-3.875 2.925-6.862.642-2.99-2.28-2.17-5.956-1.87-6.682 0 0 .266-.78.589-1.189l.02-3.02s-2.503 1.46-3.197 4.535h.001c-.242.894-.292 1.37-.152 2.612zm3.192 8.92l.03-2.537c-.26-.082-.606-.296-.954-.549-.048-.04-.095-.08-.148-.119-1.106-.789-4.167-3.486-3.116-8.556 1.05-5.07 6.862-6.939 10.542-5.817 3.677 1.12 4.295 3.668 4.635 4.261.21.367.465.777.928.715.463-.063.279-1.058.279-1.058l-.9-3.291s-.208-.886-1.2-1.23c-.818-.286-1.052-.397-1.574-.66 0 0-5.909-4.071-12.555 1.232 0 0-2.35 2.114-3.03 4.57 0 0-.364 1.352-.384 1.852-.033.726-.078 1.635.074 2.662.148.968.986 5.494 5.354 7.827v.006c.078.037.151.073.223.11.187.093.374.185.574.27 0 0 .082.045.2.074.775.302 1.022.237 1.022.237zm2.75-17.281s-1.412-.042-2.176.662l-.04 9.745s.782 1.41 2.306 1.95l-.041-3.339s-.144-.643.68-.6c.826.042.674.104 1.334.884.476.562.956.532 1.228.43.424-.16.594-.452.478-.942-.235-.991-.895-2.923-.895-2.923s-.095-.714-.792-.647c-.671.066-.674.522-.674.522s.044.601-.696.58c-.746-.02-.683-.767-.683-.767l-.029-5.555zm-2.306-4.116v1.012s1.07-.363 2.27-.363c0 0-.241-.714 1.785-.6 2.03.113 2.309.21 3.428 1.06.138.095.702.783 1.327.597.655-.195.26-.744.26-.744l-1.325-2.248s-.236-.471-.892-.55c-.578-.072-1.1-.08-1.953-.091l-5.002-.017s-.553-.028-.573.84c-.02.898.431.81.675 1.104z"/><path fill="#FFF" d="M64.676 46.844c-.275-.24-4.68-2.226-4.68-2.226.087.357.004.565-.028.645-3.213 7.936-10.95 13.534-19.99 13.534-8.983 0-16.681-5.528-19.93-13.388-.09-.213-.166-.47-.133-.697 0 0-4.432 2.03-4.57 2.17-.138.139-.285.577-.213.764 3.866 10.013 13.533 17.11 24.847 17.11 11.367 0 21.07-7.164 24.9-17.252.02-.053.132-.367-.203-.66"/><path fill="#FFF" d="M65.844 43.407a.13.13 0 0 1-.181-.027.13.13 0 0 1 .027-.181c.006-.005.21-.168.525-.635.02-.124.038-.248.056-.373-.196.243-.317.336-.326.343a.13.13 0 0 1-.18-.027.13.13 0 0 1 .026-.181c.005-.005.219-.175.544-.664.015-.135.026-.272.037-.408-.278.383-.456.52-.468.53a.13.13 0 0 1-.154-.209c.006-.006.269-.213.656-.837.009-.163.015-.325.02-.487-.32.577-.545.78-.558.791a.13.13 0 1 1-.17-.195c.008-.008.323-.302.73-1.176-.007-.279-.068-.905-.068-.905s-.022.1-.086.261c-.152.384-.538 1.122-1.426 1.753-.722.513-1.602.9-3.015 1.07-1.45.177-3.514.232-4.564 1.417-.23.261-.433.6-.53.936-.077.262-.041.775.313.854.39.088.827-.161 1.123-.424.702-.623 1.313-.673 2.138-.31.775.34 1.72.752 2.497 1.086.426.183.857.413 1.29.47.368.05.758-.11 1.084-.479a3.06 3.06 0 0 0 .529-.872c.13-.319.231-.651.31-.988.032-.134.06-.27.088-.405-.16.19-.259.265-.267.272m-42.608.84a2.546 2.546 0 0 0-.53-.935c-1.05-1.185-3.113-1.24-4.564-1.416-1.413-.171-2.293-.558-3.015-1.07-.889-.632-1.275-1.37-1.426-1.754-.065-.162-.086-.261-.086-.261s-.045.47-.064.778c.34.653.584.879.587.882.053.047.058.129.011.183a.128.128 0 0 1-.181.012c-.01-.01-.176-.159-.422-.558.003.15.007.301.013.453.318.472.524.635.527.637a.132.132 0 0 1 .026.182.132.132 0 0 1-.104.052.127.127 0 0 1-.076-.026 2.187 2.187 0 0 1-.348-.37c.009.138.02.278.032.417.263.364.427.494.43.496a.13.13 0 0 1-.079.234.125.125 0 0 1-.076-.026 1.739 1.739 0 0 1-.225-.222c.016.13.033.261.052.392.261.363.425.493.428.495a.13.13 0 0 1-.078.234.129.129 0 0 1-.076-.026 1.548 1.548 0 0 1-.19-.184c.043.249.092.497.15.739.078.336.179.668.31.988.13.318.301.616.53.872.325.368.715.528 1.083.479.433-.057.863-.287 1.289-.47.778-.334 1.722-.747 2.498-1.087.824-.362 1.436-.313 2.138.31.295.264.733.513 1.122.425.355-.08.39-.592.314-.854"/><path fill="#C1C6C8" d="M59.592 44.571c-.29-.197-.691-.032-1.086.352-.392.382-.907.646-1.314.692.903 1.016 1.564 1.215 1.564 1.215s.233-.405.414-.747c.181-.342.758-1.283.422-1.512M14.92 38.024c-.516.044-.779.202-.998.486 0 0 .065.584.412 1.069.241.337.671.72.671.72s-.3-1.323-.085-2.275m50.144 0c.215.952-.086 2.275-.086 2.275s.43-.383.672-.72a2.54 2.54 0 0 0 .412-1.07c-.22-.283-.483-.441-.998-.485m-44.68 6.592c-.336.23.24 1.17.421 1.512.181.341.415.747.415.747s.662-.199 1.564-1.215c-.408-.046-.923-.31-1.314-.692-.395-.385-.797-.55-1.086-.352m19.644 20.5c-.152 0-.303-.007-.454-.01l-.396 2.304.674.53.618-.536-.314-2.29-.128.002m.523-.011l.391 2.297c.264-.024.524-.06.782-.104l-.559-2.207c-.203.008-.409.01-.614.014m.964-.036l.605 2.138c.242-.051.48-.113.716-.182l-.737-1.99c-.193.015-.389.024-.584.034m-2.92.004l-.558 2.21c.24.048.485.085.732.116l.441-2.3c-.206-.006-.41-.016-.614-.026m-.895-.062l-.715 2.002c.224.07.453.132.684.187l.603-2.146c-.19-.013-.381-.026-.572-.043M15.686 35.987c-.08.286-.01 1.551.261 2.034.272.484 1.484 2.07 1.484 2.07s.09-.964-.087-1.47c-.176-.505-1.658-2.634-1.658-2.634m2.164 2.033c-.153.292-.175 1.45-.175 1.45s1.442-1.365 1.765-1.824c.324-.46.513-1.745.513-1.745s-1.773 1.488-2.103 2.12m-1.252-1.276c.275.653.9 1.53.9 1.53s.13-1.793.124-2.266c-.004-.473-.55-1.757-.55-1.757s-.778 1.78-.474 2.493m1.198.767s.72-.663 1.092-1.254c.406-.645.208-2.167.208-2.167s-1.063 1.083-1.14 1.548c-.076.466-.16 1.873-.16 1.873m.164-3.334s.272-.928.195-1.458c-.077-.53-1.127-2.906-1.127-2.906-.133.266-.305 1.52-.13 2.048.174.527 1.062 2.316 1.062 2.316m3.273-3.625s-2.023 1.118-2.467 1.675c-.206.256-.449 1.389-.449 1.389s1.676-1.062 2.081-1.45c.404-.389.835-1.614.835-1.614m-2.86 1.858s.467-1.735.551-2.2c.087-.467-.206-1.832-.206-1.832s-1.1 1.596-.939 2.356c.146.694.593 1.676.593 1.676m1.747-1.713c.522-.555.618-2.086.618-2.086s-1.25.857-1.414 1.3c-.164.441-.514 1.806-.514 1.806s.834-.512 1.31-1.02m.272-3.821c.117-.523-.017-3.12-.017-3.12-.218.2-.827 1.31-.851 1.865-.025.555.167 2.546.167 2.546s.584-.768.701-1.291m-.167.896s1.943-.387 2.459-.603c.515-.217 1.354-1.205 1.354-1.205s-2.287.313-2.9.673c-.284.165-.913 1.135-.913 1.135m1.78-2.961c.246-.404.46-1.785.46-1.785s-1.597 1.094-1.716 1.86c-.11.701-.044 1.78-.044 1.78s1.055-1.451 1.3-1.855m-.645 1.366s.96-.178 1.586-.48c.685-.33 1.32-1.725 1.32-1.725s-1.473.35-1.783.704c-.31.353-1.123 1.501-1.123 1.501m3.091-4.35c.223-.517.588-3.23.588-3.23-.265.165-1.109 1.193-1.243 1.762-.133.57-.32 2.666-.32 2.666s.753-.679.975-1.197m.818-.101c-.326.115-1.165.994-1.165.994s2.085-.017 2.661-.14c.575-.122 1.634-.98 1.634-.98s-2.426-.125-3.13.126m1.25-1.718c.334-.37.823-1.756.823-1.756s-1.864.818-2.136 1.587c-.25.703-.39 1.832-.39 1.832s1.372-1.294 1.704-1.663m.52-.046c-.389.304-1.452 1.332-1.452 1.332s1.027.005 1.734-.184c.772-.207 1.699-1.525 1.699-1.525s-1.59.072-1.98.377m4.183-4.624c-.289.06-1.376.698-1.68 1.162-.303.465-1.15 2.273-1.15 2.273s.891-.358 1.258-.747c.366-.389 1.572-2.688 1.572-2.688m-.81 2.867c-.327-.005-1.362.504-1.362.504s1.866.67 2.419.75c.553.08 1.776-.336 1.776-.336s-2.124-.91-2.833-.918m.556-1.704c-.451.545-.942 1.506-.942 1.506s1.644-.702 2.06-.923c.417-.22 1.302-1.296 1.302-1.296s-1.928.116-2.42.713m1.597.713c-.446.144-1.728.711-1.728.711s.915.342 1.606.405c.756.07 2.01-.801 2.01-.801s-1.44-.46-1.888-.315m30.015 21.406c-.176.505-.086 1.468-.086 1.468s1.212-1.584 1.484-2.068.341-1.749.261-2.035c0 0-1.482 2.13-1.659 2.635m-2.609-2.72s.19 1.285.513 1.744c.323.459 1.767 1.824 1.767 1.824s-.023-1.158-.176-1.45c-.33-.631-2.104-2.119-2.104-2.119m2.882-1.649s-.546 1.284-.55 1.757c-.007.473.123 2.267.123 2.267s.626-.878.902-1.53c.302-.715-.475-2.494-.475-2.494m-.724 3.26s-.084-1.407-.16-1.873c-.077-.465-1.14-1.548-1.14-1.548s-.198 1.522.209 2.167c.37.59 1.09 1.254 1.09 1.254m-.163-3.334s.888-1.789 1.063-2.316c.173-.527.001-1.782-.13-2.048 0 0-1.05 2.376-1.128 2.906-.077.53.195 1.458.195 1.458m-.806-1.95c-.444-.557-2.467-1.675-2.467-1.675s.43 1.225.834 1.614c.405.388 2.081 1.45 2.081 1.45s-.242-1.133-.448-1.39m.394.184s.446-.982.593-1.676c.161-.76-.94-2.356-.94-2.356s-.292 1.365-.206 1.831c.085.466.553 2.2.553 2.2m-2.365-3.798s.096 1.531.617 2.086c.477.508 1.31 1.02 1.31 1.02s-.349-1.365-.514-1.807c-.163-.442-1.413-1.3-1.413-1.3m1.047-.443s.192-1.99.167-2.546c-.025-.555-.633-1.664-.851-1.865 0 0-.134 2.597-.017 3.12.117.523.701 1.291.701 1.291m-.534-.395s-.63-.97-.914-1.135c-.613-.36-2.899-.673-2.899-.673s.84.988 1.354 1.205c.516.216 2.46.603 2.46.603m-.481-1.106s.067-1.079-.044-1.78c-.12-.766-1.716-1.86-1.716-1.86s.214 1.381.46 1.785c.245.404 1.3 1.855 1.3 1.855m-2.241-.969c.625.302 1.586.48 1.586.48s-.813-1.148-1.123-1.502c-.31-.354-1.783-.703-1.783-.703s.635 1.395 1.32 1.725m-.668-2.791s-.179-1.992-.305-2.533c-.127-.54-.93-1.517-1.18-1.673 0 0 .346 2.576.558 3.069.21.492.927 1.137.927 1.137m-1.705-1.233c-.668-.239-2.972-.12-2.972-.12s1.005.815 1.551.931c.548.117 2.528.133 2.528.133s-.797-.835-1.107-.944m.431-.053s-.132-1.072-.37-1.74c-.259-.73-2.03-1.507-2.03-1.507s.464 1.316.781 1.667c.316.351 1.62 1.58 1.62 1.58m-2.382-.533c.672.18 1.648.176 1.648.176s-1.01-.977-1.38-1.267c-.37-.289-1.882-.357-1.882-.357s.88 1.252 1.614 1.448m-1.124-2.313s-.848-1.808-1.152-2.272c-.304-.464-1.39-1.103-1.679-1.163 0 0 1.205 2.299 1.572 2.688.367.389 1.26.747 1.26.747m-3.08.686c.555-.08 2.42-.75 2.42-.75s-1.035-.508-1.363-.504c-.709.007-2.832.918-2.832.918s1.222.416 1.776.336m-.617-2.375c.416.22 2.06.923 2.06.923s-.49-.96-.942-1.506c-.493-.597-2.42-.713-2.42-.713s.885 1.076 1.302 1.296m-.358 1.247c.692-.064 1.607-.406 1.607-.406s-1.282-.568-1.729-.71c-.446-.145-1.888.314-1.888.314s1.255.871 2.01.802m-7.523.584c2.868 0 5.194-1.41 5.194-3.152 0-1.432-1.577-2.64-3.734-3.023l-.045.64a.18.18 0 0 1-.192.168.182.182 0 0 1-.167-.168l-.05-.708c-.101-.012-.205-.02-.31-.029l-.045 1.041a.19.19 0 0 1-.198.182.19.19 0 0 1-.18-.182l-.047-1.065c-.076-.003-.15-.007-.226-.007-.064 0-.125.004-.188.005l-.043 1.067a.194.194 0 0 1-.387 0l-.042-1.044a8.096 8.096 0 0 0-.35.032l-.051.708a.177.177 0 0 1-.189.165.178.178 0 0 1-.164-.165l-.045-.64c-2.158.382-3.736 1.59-3.736 3.023 0 1.741 2.326 3.152 5.195 3.152m13.02 19.822c-.017-.008-.012-.009 0 0m1.754.64a6.826 6.826 0 0 0-.36-.803c-.152-.267-.293-.54-.635-.827a1.206 1.206 0 0 0-.35-.198.98.98 0 0 0-.53-.035 1.042 1.042 0 0 0-.44.213 1.457 1.457 0 0 0-.248.26l-.036.047a.643.643 0 0 0 .183.938c.26.154.585.1.784-.111.068.083.145.196.209.31.114.199.219.421.312.648.091.22.166.452.234.69.131.474.21.958.225 1.441.018.482-.039.968-.146 1.453-.42 1.95-1.742 3.634-3.287 4.996-1.56 1.372-3.388 2.453-5.17 3.63-.443.29-.896.606-1.32.903-.438.294-.893.596-1.316.951-.213.178-.418.37-.608.586-.187.216-.367.461-.472.771a1.297 1.297 0 0 0-.067.502 1.19 1.19 0 0 0 .319.71.61.61 0 0 0 .302.168.581.581 0 0 0 .353-.041.781.781 0 0 0 .25-.177l.007-.007a.268.268 0 0 0-.017-.377.263.263 0 0 0-.374.017l-.004.005a.277.277 0 0 1-.073.05c-.025.011-.033.01-.036.01-.001.007-.067-.04-.11-.127a.644.644 0 0 1-.034-.556c.147-.4.534-.767.93-1.078.402-.316.841-.59 1.295-.875.456-.3.885-.578 1.34-.858 1.796-1.11 3.683-2.143 5.37-3.535.839-.694 1.629-1.48 2.289-2.375a8.652 8.652 0 0 0 1.475-3.04c.14-.553.227-1.134.225-1.72 0-.585-.078-1.165-.215-1.725a7.403 7.403 0 0 0-.254-.833m-28.215-.64c.013-.01.018-.01 0 0M37.18 56.622a.61.61 0 0 0 .302-.167 1.181 1.181 0 0 0 .252-1.213 2.317 2.317 0 0 0-.472-.771 5.459 5.459 0 0 0-.608-.586c-.424-.355-.879-.657-1.317-.95a53.44 53.44 0 0 0-1.32-.904c-1.78-1.177-3.609-2.258-5.169-3.63-1.544-1.362-2.868-3.046-3.287-4.996a5.718 5.718 0 0 1 .079-2.894c.068-.238.143-.47.234-.69.093-.227.198-.45.313-.648.064-.115.141-.228.21-.312.22.235.585.27.846.07a.643.643 0 0 0 .117-.898l-.034-.044a1.423 1.423 0 0 0-.248-.26 1.042 1.042 0 0 0-.44-.213.98.98 0 0 0-.53.035c-.151.054-.26.127-.35.198-.342.288-.483.56-.636.827a6.826 6.826 0 0 0-.359.804 7.631 7.631 0 0 0-.468 2.557 6.884 6.884 0 0 0 .224 1.72 8.646 8.646 0 0 0 1.475 3.041c.66.894 1.45 1.681 2.289 2.375 1.687 1.392 3.575 2.425 5.37 3.535.455.28.884.559 1.34.858.454.285.893.56 1.296.875.395.31.781.678.93 1.078.069.2.062.377-.036.556-.043.087-.108.134-.11.126-.003 0-.01.002-.035-.008a.266.266 0 0 1-.073-.051l-.005-.006-.006-.006a.264.264 0 0 0-.375-.003.269.269 0 0 0-.003.377c.081.083.15.13.25.177a.581.581 0 0 0 .354.041M26.084 31.62a.377.377 0 0 0-.207-.257.356.356 0 0 0-.242-.022.363.363 0 0 0-.257.206.405.405 0 0 0-.031.236c.059.284.378.425.635.465.327.052.645-.046.926-.21.142-.082.277-.178.404-.28a2.907 2.907 0 0 0 1.084-2.387 3.073 3.073 0 0 0-.041-.41 1.608 1.608 0 0 0-.166-.5 1.205 1.205 0 0 0-.627-.547c-.205-.077-.485-.067-.594.17a.38.38 0 0 0 .185.501c.121.057.257.04.362-.029a.94.94 0 0 1 .303 1.154.921.921 0 0 1-.59.506c-.034.009-.066.018-.103.022a.936.936 0 0 1 .048.876.923.923 0 0 1-1.09.506m3.281-5.65c.264.201.59.265.916.255.164-.005.326-.025.488-.056a2.889 2.889 0 0 0 2.075-1.587c.06-.123.114-.25.157-.38.055-.167.09-.345.089-.52a1.21 1.21 0 0 0-.296-.78c-.145-.166-.397-.29-.602-.134a.377.377 0 0 0-.148.263.372.372 0 0 0 .406.414.938.938 0 0 1-.274 1.161.914.914 0 0 1-.86.136.936.936 0 0 1-.368.795.92.92 0 0 1-1.198-.073.38.38 0 0 0-.061-.325.356.356 0 0 0-.203-.135.361.361 0 0 0-.323.06.41.41 0 0 0-.139.193c-.081.278.134.554.341.712m23.278 2.587c.103.069.24.086.362.03a.38.38 0 0 0 .184-.503c-.108-.236-.388-.246-.594-.169a1.206 1.206 0 0 0-.628.547 1.636 1.636 0 0 0-.165.5 3.073 3.073 0 0 0-.04.41 2.912 2.912 0 0 0 1.084 2.386c.127.103.261.199.403.281.282.164.6.262.927.21.256-.04.575-.18.635-.465a.418.418 0 0 0-.031-.236.364.364 0 0 0-.258-.206.358.358 0 0 0-.241.022.38.38 0 0 0-.207.257.924.924 0 0 1-1.09-.506.938.938 0 0 1 .048-.876c-.036-.005-.069-.014-.102-.023a.92.92 0 0 1-.59-.505.939.939 0 0 1 .303-1.154m-5.328-3.974a2.884 2.884 0 0 0 2.075 1.587c.161.03.324.051.487.056.327.01.652-.054.917-.256.206-.158.422-.434.34-.712a.412.412 0 0 0-.138-.193.362.362 0 0 0-.324-.06.362.362 0 0 0-.203.135.385.385 0 0 0-.061.325.92.92 0 0 1-1.198.073.935.935 0 0 1-.369-.795c-.034.013-.067.02-.1.028a.913.913 0 0 1-.759-.164.938.938 0 0 1-.274-1.16.373.373 0 0 0 .406-.414.376.376 0 0 0-.147-.264c-.206-.156-.458-.032-.602.133a1.21 1.21 0 0 0-.296.78 1.65 1.65 0 0 0 .088.52c.043.13.097.258.158.381"/><path fill="#031E2F" d="M20.094 49.309a.503.503 0 0 1 .164-.009c.028.008.054.037.08.089l.236.464a.082.082 0 0 1 0 .074.144.144 0 0 1-.07.065c-.035.018-.064.023-.085.015a.28.28 0 0 1-.078-.049c-.027-.026-.053-.037-.08-.035a.33.33 0 0 0-.11.039l-1.489.764c-.086.045-.135.088-.143.13l-.006.04c-.01.053-.033.088-.067.105-.07.037-.127.014-.168-.067l-.239-.473c-.04-.079-.025-.137.046-.173.025-.013.046-.018.061-.015a.304.304 0 0 1 .064.023l.034.018c.039.018.102.004.19-.04l1.337-.687-1.44.232c-.077.01-.127.017-.149.018a.12.12 0 0 1-.068-.018.183.183 0 0 1-.065-.081.29.29 0 0 1-.042-.132c.002-.03.026-.07.072-.121l1.044-1.09-1.307.671a.803.803 0 0 0-.093.068.123.123 0 0 0-.03.045.136.136 0 0 0-.007.046l-.001.047a.118.118 0 0 1-.068.117c-.064.032-.125-.008-.183-.122l-.109-.216c-.056-.111-.053-.184.012-.217.048-.024.092-.022.131.01.03.022.053.038.068.046.015.009.037.01.065.004a.79.79 0 0 0 .11-.036l1.478-.758a.263.263 0 0 0 .062-.042.165.165 0 0 0 .061-.155.322.322 0 0 1 .005-.093c.006-.021.025-.041.06-.058.07-.037.13-.007.177.089l.246.484c.027.053.029.095.007.129-.023.032-.07.083-.144.152l-.93.913 1.361-.21zm-.524 2.47a.963.963 0 0 0-.206.17.146.146 0 0 0-.021.14c.017.054.062.136.136.25.053.08.104.136.152.172a.4.4 0 0 0 .21.06c.066 0 .118.002.156.007.038.003.066.019.084.046a.093.093 0 0 1 .01.077.115.115 0 0 1-.048.07c-.051.035-.15.078-.295.13-.069.025-.116.035-.143.027-.025-.008-.056-.037-.091-.09l-.76-1.134c-.051-.076-.044-.136.022-.18.024-.017.043-.024.058-.022a.369.369 0 0 1 .07.018l.036.013c.04.014.101-.008.182-.063l1.371-.931c.086-.058.13-.108.133-.151l-.004-.035c.004-.058.022-.099.056-.121.034-.023.066-.029.098-.016a.158.158 0 0 1 .077.062l.724 1.081c.044.066.06.118.049.155-.022.052-.104.126-.246.223-.082.055-.141.055-.179 0-.02-.031-.016-.085.014-.164a.33.33 0 0 0 .02-.224.968.968 0 0 0-.131-.248c-.067-.1-.119-.16-.153-.176a.101.101 0 0 0-.123 0l-.53.36.234.349c.03.046.058.074.082.084.024.01.055.018.09.024.037.005.062.018.076.037.037.056-.01.128-.142.217a.873.873 0 0 1-.19.106c-.047.018-.082.008-.105-.026-.014-.02-.018-.05-.01-.087a.439.439 0 0 0 .01-.091c0-.024-.016-.059-.046-.105l-.234-.349-.493.335zm3.047 1.583a.867.867 0 0 0 .076-.083c.024-.041.025-.09.005-.147a.137.137 0 0 1 .046-.13c.055-.047.124-.02.205.077l.155.185c.081.096.094.167.038.214a.133.133 0 0 1-.134.025c-.053-.03-.1-.036-.141-.018a.513.513 0 0 0-.098.06l-1.433 1.217c-.08.067-.136.102-.171.107-.035.005-.078-.024-.13-.086-.043-.051-.06-.098-.052-.14.008-.038.056-.17.146-.394l.579-1.634-1.11.941a.886.886 0 0 0-.075.088.124.124 0 0 0-.019.05c-.001.015 0 .031.004.047l.01.045a.118.118 0 0 1-.04.13c-.055.047-.123.02-.205-.077l-.155-.185c-.08-.096-.093-.167-.038-.214.041-.035.085-.042.13-.022.035.016.06.026.077.03.016.005.038.002.064-.01a.818.818 0 0 0 .098-.06l1.17-.993a5.53 5.53 0 0 1 .083-.073.49.49 0 0 0 .068-.071.206.206 0 0 0 .033-.074.17.17 0 0 0-.01-.087.28.28 0 0 1-.016-.091c0-.022.015-.046.044-.07.06-.052.126-.036.194.045l.243.29a.344.344 0 0 1 .062.092.288.288 0 0 1-.009.115c-.018.08-.044.17-.077.272-.033.1-.065.196-.097.286l-.134.374-.262.712.876-.743zm.946 1.722c.097.174.146.32.147.435a.714.714 0 0 1-.213.514.87.87 0 0 1-.652.295.87.87 0 0 1-.607-.263 1.094 1.094 0 0 1-.294-.465.94.94 0 0 1-.02-.312.43.43 0 0 1 .11-.265.234.234 0 0 1 .122-.07c.046-.01.083-.002.111.025.044.043.051.11.02.203l-.023.09-.021.09a.76.76 0 0 0-.006.15.551.551 0 0 0 .17.337.463.463 0 0 0 .285.13c.112.01.213-.031.302-.124.086-.09.114-.188.082-.291a1.11 1.11 0 0 0-.17-.338 1.179 1.179 0 0 1-.187-.45.715.715 0 0 1 .207-.575.875.875 0 0 1 .622-.268.788.788 0 0 1 .54.245c.162.156.268.343.318.56.008.052.002.093-.018.125a1.401 1.401 0 0 1-.2.24c-.066.07-.124.08-.174.032-.022-.021-.025-.059-.011-.111.014-.054.032-.12.055-.198a.512.512 0 0 0 .012-.232.422.422 0 0 0-.134-.223.361.361 0 0 0-.234-.103.304.304 0 0 0-.247.105c-.076.08-.109.159-.1.237.01.078.044.17.098.274l.11.201zm2.669 2.158c.122.158.192.294.21.408a.715.715 0 0 1-.133.54.87.87 0 0 1-.6.39.866.866 0 0 1-.64-.166 1.091 1.091 0 0 1-.36-.415.947.947 0 0 1-.067-.305.43.43 0 0 1 .07-.28.244.244 0 0 1 .11-.088c.043-.016.08-.013.112.009.05.035.067.101.05.197 0 .02-.004.051-.008.093a1.087 1.087 0 0 0-.007.093.5.5 0 0 0 .016.148c.036.127.109.23.219.308.088.062.188.09.3.084a.359.359 0 0 0 .28-.168c.072-.103.085-.203.038-.3a1.114 1.114 0 0 0-.219-.308 1.178 1.178 0 0 1-.253-.416.714.714 0 0 1 .12-.6.878.878 0 0 1 .572-.36.788.788 0 0 1 .572.16c.183.129.316.297.398.504.017.05.017.092 0 .126a1.391 1.391 0 0 1-.16.27c-.055.078-.11.097-.167.057-.025-.018-.034-.054-.028-.109l.024-.204a.5.5 0 0 0-.022-.231.418.418 0 0 0-.166-.2.358.358 0 0 0-.248-.065.302.302 0 0 0-.228.14c-.062.09-.083.174-.062.25a.833.833 0 0 0 .138.256l.139.182zm1.606 1.551l.014-.051.17-.905-.725.647.541.31zm-1.438.458a.357.357 0 0 1-.117-.094c-.02-.028-.018-.064.006-.107.015-.026.048-.047.098-.063a.229.229 0 0 0 .13-.056l.278-.287c.19-.199.5-.482.93-.853.135-.12.28-.237.434-.354.048-.035.086-.051.115-.05.03.002.069.017.118.045.066.037.105.075.119.114a.435.435 0 0 1-.004.193l-.325 1.736-.094.36a.223.223 0 0 0-.007.066c.002.012.01.037.022.073a.11.11 0 0 1 0 .112c-.038.07-.1.081-.18.034l-.408-.233c-.1-.057-.132-.118-.095-.185.02-.034.054-.053.103-.056.05-.003.08-.015.091-.036.03-.052.074-.21.136-.474l.016-.056-.676-.386a2.61 2.61 0 0 1-.1.104 4.406 4.406 0 0 0-.141.148.664.664 0 0 0-.08.103.144.144 0 0 0-.022.078.237.237 0 0 0 .02.073c.013.026.02.048.025.068.003.02-.002.041-.016.066-.023.041-.053.059-.09.054a.43.43 0 0 1-.151-.06l-.135-.077zm4.395-.12a.844.844 0 0 0 .033-.11c.004-.047-.016-.091-.06-.132a.14.14 0 0 1-.015-.138c.03-.066.102-.073.219-.022l.22.098c.113.05.155.11.126.175a.134.134 0 0 1-.11.082c-.06-.004-.105.012-.134.047a.498.498 0 0 0-.062.096l-.76 1.726c-.04.095-.076.153-.106.172-.029.02-.08.013-.154-.02-.06-.027-.097-.062-.108-.103a4.175 4.175 0 0 1-.04-.419l-.191-1.724-.587 1.336a1 1 0 0 0-.03.111c-.002.022 0 .04.005.054a.125.125 0 0 0 .023.04l.03.037a.12.12 0 0 1 .02.134c-.029.066-.102.073-.218.021l-.22-.098c-.114-.05-.156-.109-.127-.174.022-.05.058-.076.108-.077a.546.546 0 0 0 .082-.008c.017-.002.034-.015.053-.037a.89.89 0 0 0 .062-.098l.619-1.408.043-.102a.467.467 0 0 0 .03-.095.19.19 0 0 0-.002-.08.165.165 0 0 0-.047-.074.291.291 0 0 1-.054-.075c-.01-.02-.006-.048.01-.082.031-.073.096-.088.193-.045l.346.154c.05.022.081.04.094.055.014.015.028.05.043.107.018.08.034.172.049.278.014.105.026.205.037.3l.042.395.075.756.463-1.054zm1.444 1.586l.003-.054-.008-.92-.586.777.591.197zm-1.32.733a.361.361 0 0 1-.134-.07c-.025-.024-.03-.059-.015-.106.01-.029.038-.056.084-.08a.235.235 0 0 0 .117-.082l.216-.336c.148-.232.396-.572.745-1.02.11-.143.229-.288.357-.433.04-.043.075-.067.104-.072a.312.312 0 0 1 .123.021c.073.024.12.054.14.088a.42.42 0 0 1 .033.191l.02 1.766-.021.371a.22.22 0 0 0 .005.066.51.51 0 0 0 .036.068.11.11 0 0 1 .022.11c-.025.076-.082.098-.171.07l-.444-.148c-.11-.037-.153-.09-.13-.163.013-.037.043-.062.09-.076.048-.013.075-.03.083-.054.018-.056.031-.22.04-.49l.005-.058-.737-.245a4.54 4.54 0 0 1-.079.12 5.483 5.483 0 0 0-.11.174.589.589 0 0 0-.057.116.138.138 0 0 0-.007.08.211.211 0 0 0 .035.068.317.317 0 0 1 .036.063c.007.018.007.04-.002.068-.015.044-.04.067-.078.07a.431.431 0 0 1-.16-.029l-.146-.048zm4.063-1.026c.02-.106.017-.173-.011-.2l-.023-.022c-.039-.044-.053-.086-.046-.125.016-.08.068-.11.157-.092l.517.104a.158.158 0 0 1 .088.046c.024.024.031.057.023.098-.008.04-.038.073-.089.098l-.035.01c-.037.02-.066.081-.086.182l-.32 1.634c-.02.096-.016.16.011.193l.028.029c.037.044.052.084.045.12-.015.078-.068.108-.157.09l-.517-.103c-.089-.018-.126-.066-.11-.144.005-.029.014-.047.026-.056a.432.432 0 0 1 .062-.037l.03-.017c.037-.014.066-.073.086-.175l.32-1.633zm2.593.4a.925.925 0 0 0 0-.113c-.01-.046-.042-.083-.095-.11a.137.137 0 0 1-.054-.128c.01-.072.077-.1.203-.083l.239.03c.123.015.18.059.171.13a.134.134 0 0 1-.081.11c-.06.015-.098.043-.116.085a.523.523 0 0 0-.033.11l-.231 1.873c-.013.102-.03.168-.053.195-.022.027-.073.035-.153.026-.066-.009-.11-.031-.133-.068a3.986 3.986 0 0 1-.159-.389l-.676-1.595-.18 1.449a.947.947 0 0 0 .004.116c.004.02.01.037.02.05.01.012.02.023.034.031a.62.62 0 0 1 .038.027c.045.029.065.07.058.122-.009.072-.076.1-.202.084l-.24-.03c-.122-.015-.18-.059-.17-.13.006-.055.033-.09.08-.105.036-.013.062-.023.077-.03.015-.01.028-.026.04-.053a.8.8 0 0 0 .032-.111l.188-1.528.013-.11a.484.484 0 0 0 0-.1.189.189 0 0 0-.024-.076.158.158 0 0 0-.066-.058.29.29 0 0 1-.073-.055c-.015-.017-.02-.044-.015-.082.01-.079.067-.112.174-.099l.374.048c.054.006.09.014.107.025.016.01.04.04.07.09.041.07.083.155.127.251.044.097.085.19.122.277l.153.366.289.702.141-1.143zm3.464 0a.411.411 0 0 0-.302-.126c-.2.004-.358.117-.476.339-.102.2-.15.439-.145.716.005.275.057.51.158.704.11.223.282.332.516.327.18-.003.337-.095.472-.277a7.85 7.85 0 0 0 .05-.068.333.333 0 0 1 .056-.059.103.103 0 0 1 .064-.024c.026 0 .049.011.068.035a.14.14 0 0 1 .03.088.364.364 0 0 1-.088.228c-.06.077-.125.141-.195.194a.893.893 0 0 1-.55.193.994.994 0 0 1-.548-.15 1.121 1.121 0 0 1-.407-.444 1.452 1.452 0 0 1-.16-.662c-.004-.19.022-.37.08-.54.058-.169.139-.317.243-.444.103-.127.224-.227.36-.3a.939.939 0 0 1 .43-.112.97.97 0 0 1 .65.22c.049.033.08.07.093.113.02.062.03.19.034.382 0 .04-.01.073-.031.1a.106.106 0 0 1-.084.04.078.078 0 0 1-.074-.04 1.088 1.088 0 0 1-.065-.135.78.78 0 0 0-.18-.298m2.61.712a2.35 2.35 0 0 0-.11-.485 1.01 1.01 0 0 0-.226-.383.399.399 0 0 0-.349-.123c-.195.023-.329.167-.4.432a1.793 1.793 0 0 0-.032.67c.02.164.056.325.11.483.054.16.13.29.225.391.095.103.21.146.342.13a.41.41 0 0 0 .313-.199.963.963 0 0 0 .133-.418 2.25 2.25 0 0 0-.006-.498m-1.23 1.096c-.233-.223-.372-.526-.418-.91a1.614 1.614 0 0 1 .021-.533c.036-.17.097-.319.183-.45s.19-.237.314-.316a1.003 1.003 0 0 1 .847-.102c.142.048.271.123.386.228.115.104.21.234.285.39.076.154.125.328.148.52.03.25.005.482-.07.697a1.195 1.195 0 0 1-.35.521.957.957 0 0 1-.956.187 1.079 1.079 0 0 1-.39-.232m2.848-1.45a.84.84 0 0 0 .408-.231c.112-.115.15-.262.11-.44-.031-.139-.09-.236-.178-.289a.403.403 0 0 0-.305-.041c-.1.022-.162.06-.185.111-.022.04-.02.118.005.233l.145.658zm.197.868c.02.096.05.154.089.173l.036.014c.048.024.077.055.085.093.018.078-.018.126-.107.146l-.514.116c-.09.02-.142-.01-.16-.088-.006-.028-.005-.048.002-.062a.437.437 0 0 1 .042-.058l.021-.028c.028-.028.031-.093.008-.194l-.358-1.62c-.023-.106-.053-.166-.09-.18l-.031-.015a.404.404 0 0 1-.064-.036c-.011-.009-.02-.028-.027-.056-.016-.077.019-.126.108-.146l.961-.221c.199-.045.355-.046.47-.006.085.03.16.084.227.164s.112.173.135.28c.061.275-.028.525-.267.75.178.154.365.403.56.744a.937.937 0 0 0 .083.118c.02.021.05.041.092.06a.385.385 0 0 1 .064.033c.01.007.019.024.025.052.014.066-.025.111-.12.132l-.528.118a.306.306 0 0 1-.123.007c-.033-.006-.055-.034-.066-.081-.007-.035.005-.071.037-.11.031-.038.044-.073.037-.105-.018-.08-.087-.2-.206-.363-.12-.161-.22-.28-.301-.354l-.254.116.134.607zm2.102-1.363a.952.952 0 0 0 .358-.31c.087-.127.103-.28.047-.455a.499.499 0 0 0-.213-.296.366.366 0 0 0-.31-.032c-.085.027-.135.065-.15.114-.017.041-.009.11.022.21l.246.769zm.241.756c.022.05.04.084.052.103.017.025.033.038.048.043a.6.6 0 0 0 .081.016.12.12 0 0 1 .1.088c.02.068-.027.122-.146.16l-.493.16c-.087.028-.142.004-.166-.072-.008-.027-.01-.046-.005-.059a.417.417 0 0 1 .033-.064l.023-.031c.025-.03.022-.096-.01-.194l-.505-1.586c-.033-.104-.069-.16-.107-.17l-.034-.006c-.052-.022-.084-.052-.096-.09-.024-.076.007-.127.094-.156l.813-.262c.208-.068.388-.082.54-.043.105.028.197.08.275.157a.71.71 0 0 1 .175.297c.047.148.052.29.016.428a.947.947 0 0 1-.195.373c-.076.09-.169.166-.276.23a2.926 2.926 0 0 1-.376.178l.16.5zm2.769-1.956a2.326 2.326 0 0 0-.245-.434.988.988 0 0 0-.326-.3.398.398 0 0 0-.37-.018c-.18.079-.266.256-.26.53.006.198.06.415.162.65.065.152.147.296.244.432s.206.24.327.31c.12.07.242.077.365.024a.41.41 0 0 0 .243-.281.979.979 0 0 0 .007-.439c-.03-.16-.08-.318-.147-.474m-.865 1.405c-.287-.146-.507-.396-.661-.751a1.599 1.599 0 0 1-.132-.517 1.328 1.328 0 0 1 .046-.483c.045-.15.115-.282.21-.393a1.006 1.006 0 0 1 .783-.342c.15.003.295.038.434.105.14.066.268.163.385.29.117.126.213.279.29.457.1.23.144.46.132.686a1.194 1.194 0 0 1-.186.601.997.997 0 0 1-.443.38.952.952 0 0 1-.419.076 1.079 1.079 0 0 1-.439-.11m2.313-2.218a.843.843 0 0 0 .323-.341c.074-.143.067-.294-.023-.452-.07-.125-.155-.2-.254-.226a.403.403 0 0 0-.304.051c-.09.052-.137.105-.144.161-.01.045.015.119.072.222l.33.585zm.44.772c.049.085.094.132.136.139l.039.003c.053.008.09.03.108.063.04.07.02.127-.06.172l-.458.262c-.08.045-.139.033-.178-.036-.014-.025-.02-.045-.016-.06a.418.418 0 0 1 .023-.07l.012-.031c.019-.035.002-.099-.048-.189l-.814-1.443c-.053-.095-.1-.143-.139-.145l-.034-.006a.456.456 0 0 1-.071-.016c-.014-.004-.028-.02-.042-.044-.04-.07-.02-.127.06-.173l.855-.494c.177-.101.326-.15.447-.144.09.003.179.033.266.09a.643.643 0 0 1 .21.228c.139.245.127.51-.037.796.215.095.466.277.752.547a.993.993 0 0 0 .114.087c.024.014.06.025.104.031a.341.341 0 0 1 .07.012c.014.004.027.018.04.042.034.06.009.114-.076.162l-.47.27a.302.302 0 0 1-.116.042c-.033.004-.062-.016-.086-.06-.017-.03-.017-.068.002-.114.02-.046.021-.084.005-.112-.04-.071-.14-.166-.302-.286a2.491 2.491 0 0 0-.391-.25l-.21.186.305.541zm1.952-1.449a1 1 0 0 0 .172.203c.041.031.088.038.14.02a1.19 1.19 0 0 0 .245-.142.669.669 0 0 0 .168-.157.396.396 0 0 0 .058-.211c-.002-.067 0-.12.002-.158a.108.108 0 0 1 .046-.085.09.09 0 0 1 .075-.012c.03.006.053.023.07.048.037.05.08.15.135.295.027.068.036.116.03.142-.007.026-.036.058-.088.094l-1.112.785c-.075.053-.135.047-.181-.018-.016-.024-.023-.044-.022-.06a.439.439 0 0 1 .017-.07l.012-.036c.012-.04-.01-.102-.066-.183l-.95-1.363c-.058-.084-.109-.128-.152-.13l-.035.004c-.057-.003-.098-.02-.12-.054-.024-.034-.03-.066-.019-.098a.163.163 0 0 1 .062-.08l1.06-.747c.064-.046.115-.063.153-.052.052.021.127.102.225.244.057.081.058.141.003.18-.03.02-.084.017-.163-.01a.32.32 0 0 0-.222-.017.963.963 0 0 0-.245.136c-.098.07-.155.122-.172.157a.105.105 0 0 0 .003.125l.367.526.342-.242c.046-.032.074-.06.083-.084a.403.403 0 0 0 .022-.092c.004-.037.016-.062.035-.076.055-.038.128.008.219.139a.913.913 0 0 1 .109.189c.017.047.01.083-.025.106-.02.015-.05.019-.086.012a.456.456 0 0 0-.09-.01c-.025.002-.06.019-.104.05l-.343.241.342.491zm2.446-3.238c.178-.09.323-.132.438-.128.19.006.357.085.5.236a.88.88 0 0 1 .265.668.882.882 0 0 1-.287.6c-.142.136-.3.228-.474.275a.933.933 0 0 1-.31.007.419.419 0 0 1-.259-.123.234.234 0 0 1-.064-.125c-.008-.047.001-.084.03-.11.043-.043.111-.047.202-.012.02.005.048.015.088.027l.09.025c.02.005.043.009.07.01.026.003.052.003.077.003a.543.543 0 0 0 .342-.156.464.464 0 0 0 .14-.281.36.36 0 0 0-.109-.31c-.086-.09-.18-.122-.285-.094a1.085 1.085 0 0 0-.343.156 1.17 1.17 0 0 1-.454.169.705.705 0 0 1-.561-.234.868.868 0 0 1-.186-.3.814.814 0 0 1-.054-.336.796.796 0 0 1 .266-.534c.163-.156.352-.254.57-.295.05-.007.093.002.123.024.047.028.124.099.23.211.066.069.074.128.024.176-.022.021-.06.023-.111.007a11.452 11.452 0 0 1-.195-.064.504.504 0 0 0-.23-.023.43.43 0 0 0-.226.125.368.368 0 0 0-.112.232.308.308 0 0 0 .093.252c.076.08.153.117.231.11a.804.804 0 0 0 .277-.086l.204-.102zm1.822-1.294l-.048-.023-.85-.339.494.84.404-.478zm.176 1.508a.353.353 0 0 1-.113.099c-.032.014-.066.005-.103-.027-.024-.02-.038-.056-.043-.108a.24.24 0 0 0-.031-.14l-.228-.328a14.421 14.421 0 0 1-.657-1.079 7.046 7.046 0 0 1-.265-.496c-.025-.054-.034-.095-.027-.124a.317.317 0 0 1 .065-.107c.05-.059.095-.091.134-.097a.418.418 0 0 1 .188.041l1.633.647.333.159a.2.2 0 0 0 .063.02.422.422 0 0 0 .076-.008.11.11 0 0 1 .11.02c.06.053.06.115 0 .186l-.304.36c-.075.088-.141.107-.199.058-.03-.025-.041-.062-.035-.112.006-.049 0-.081-.019-.097-.045-.038-.19-.112-.437-.223l-.051-.027-.503.596.082.119c.045.067.085.123.118.167a.59.59 0 0 0 .086.098c.026.022.049.034.07.037.023.002.047 0 .076-.007a.288.288 0 0 1 .071-.01c.02 0 .04.009.062.028.035.03.047.063.036.099a.44.44 0 0 1-.088.137l-.1.12zm.69-4.382a.866.866 0 0 0-.1-.052c-.046-.01-.093.001-.141.037-.05.022-.096.019-.138-.01-.06-.04-.053-.113.017-.22l.135-.2c.07-.104.134-.136.194-.096.041.029.062.07.06.124-.014.06-.007.106.022.141.012.018.04.044.082.08l1.557 1.052c.086.059.136.104.15.136.013.033-.002.082-.047.15-.037.056-.077.085-.12.088a3.953 3.953 0 0 1-.416-.032l-1.72-.113 1.204.815a.844.844 0 0 0 .104.05.13.13 0 0 0 .054.004.127.127 0 0 0 .042-.016l.04-.022c.048-.028.092-.028.136.002.06.04.054.114-.017.22l-.134.201c-.07.104-.134.136-.194.096-.045-.031-.064-.071-.056-.12a.558.558 0 0 0 .007-.083c0-.017-.009-.037-.027-.06a.813.813 0 0 0-.085-.078l-1.269-.86-.092-.06a.42.42 0 0 0-.088-.046.19.19 0 0 0-.079-.013.16.16 0 0 0-.08.034.302.302 0 0 1-.083.041c-.021.005-.048-.003-.079-.024-.065-.045-.069-.111-.01-.2l.211-.315a.336.336 0 0 1 .07-.085.3.3 0 0 1 .113-.024 3.82 3.82 0 0 1 .28 0c.106.005.206.01.3.017.095.005.226.015.394.027l.753.058-.95-.644zm1.906-1.752a2.288 2.288 0 0 0-.463-.176.99.99 0 0 0-.441-.022.4.4 0 0 0-.295.225c-.09.176-.044.368.136.575.13.149.309.281.537.396.146.075.3.133.461.176.162.042.31.051.448.027a.386.386 0 0 0 .296-.216.41.41 0 0 0 .009-.372.96.96 0 0 0-.272-.342 2.22 2.22 0 0 0-.416-.27m.227 1.636c-.313.074-.641.023-.985-.152a1.584 1.584 0 0 1-.43-.312 1.317 1.317 0 0 1-.27-.402 1.06 1.06 0 0 1-.088-.438 1.004 1.004 0 0 1 .384-.767c.118-.093.252-.16.402-.198.15-.038.31-.046.48-.024.17.023.34.077.512.165a1.5 1.5 0 0 1 .538.444c.136.182.215.376.238.581.024.206-.01.398-.1.578a.957.957 0 0 1-.274.328c-.12.094-.255.16-.407.197M36.692 16.73c0-.033.007-.064.022-.09.014-.028.033-.041.055-.041h.056c.047 0 .082-.017.105-.05.016-.023.024-.07.024-.142v-1.097a.268.268 0 0 0-.016-.109c-.016-.015-.04-.023-.07-.023h-.157c-.041 0-.066-.005-.074-.015a1.11 1.11 0 0 1-.008-.197c.003-.01.043-.02.12-.03a.79.79 0 0 0 .205-.049.597.597 0 0 0 .19-.115c.052-.047.098-.071.137-.071.069 0 .103.054.103.162v1.544c0 .064.008.11.026.138.022.036.048.054.079.054h.059c.06 0 .09.044.09.131 0 .096-.03.144-.087.144h-.773c-.057 0-.086-.048-.086-.144m2.435-1.528a.182.182 0 0 0-.08-.163.378.378 0 0 0-.215-.054c-.22.006-.331.086-.331.241 0 .08.047.141.14.185a.577.577 0 0 0 .196.067.422.422 0 0 0 .167-.072.23.23 0 0 0 .123-.204m-.477.595a.461.461 0 0 0-.098.054.606.606 0 0 0-.158.147.37.37 0 0 0-.076.221c0 .11.04.196.119.257.08.062.18.092.299.092a.542.542 0 0 0 .276-.082.279.279 0 0 0 .126-.222c0-.162-.06-.277-.183-.345a.975.975 0 0 0-.305-.122m-.259-.122a.488.488 0 0 1-.257-.199.469.469 0 0 1-.071-.27c.011-.196.088-.33.23-.404.143-.075.31-.112.5-.112a.872.872 0 0 1 .487.135c.13.088.194.212.194.372-.004.23-.113.374-.328.433a.545.545 0 0 1 .41.53c0 .261-.066.447-.198.558-.131.112-.334.17-.607.175-.253 0-.443-.06-.572-.177-.129-.117-.193-.282-.193-.492a.608.608 0 0 1 .062-.267.542.542 0 0 1 .266-.256.312.312 0 0 1 .077-.026m2.306.068a.329.329 0 0 0-.266.127.46.46 0 0 0-.097.29c0 .112.032.208.097.29a.33.33 0 0 0 .266.128.334.334 0 0 0 .27-.122.44.44 0 0 0 .094-.281.53.53 0 0 0-.043-.209.386.386 0 0 0-.125-.161.316.316 0 0 0-.196-.062m.426-.884a1.093 1.093 0 0 1-.117.033.794.794 0 0 0-.442.285.842.842 0 0 0-.176.399l.045-.044a.338.338 0 0 1 .128-.068.73.73 0 0 1 .234-.03c.203 0 .367.065.49.195.124.13.186.328.186.595-.011.22-.09.388-.235.5a.882.882 0 0 1-.555.168.744.744 0 0 1-.424-.117.734.734 0 0 1-.266-.318 1.081 1.081 0 0 1-.083-.576c.023-.249.085-.455.184-.618.1-.162.211-.284.334-.363a1.238 1.238 0 0 1 .607-.21c.04 0 .07.01.092.028.022.02.033.04.033.066 0 .03-.012.054-.035.075m1.587.457c0-.066-.013-.099-.04-.099-.059 0-.167.103-.323.31-.144.19-.216.343-.216.462.01.02.042.029.095.029h.484v-.702zm.426.962v.129c0 .064.009.11.027.137.02.037.048.054.082.054h.054c.027 0 .048.012.065.035a.158.158 0 0 1 .025.093c0 .099-.029.147-.086.147h-.77c-.052 0-.078-.042-.078-.127 0-.098.027-.148.082-.148h.043a.132.132 0 0 0 .11-.048.335.335 0 0 0 .02-.143v-.13h-.825c-.057 0-.09-.013-.101-.042a.221.221 0 0 1-.013-.074c0-.09.039-.214.116-.369.076-.155.176-.314.3-.476a2.073 2.073 0 0 1 .597-.539.509.509 0 0 1 .219-.076c.088 0 .133.043.133.127v1.19h.238c.048 0 .075.043.078.128 0 .088-.025.132-.074.132h-.242z"/><path d="M0 0h80v80H0z"/></g></svg>