<svg xmlns="http://www.w3.org/2000/svg" width="80" height="80" viewBox="0 0 80 80"><g fill="none" fill-rule="evenodd"><path fill="#FFF" d="M17.238 21.328h17.036l5.702 11.121 5.607-11.105h17.119L39.908 69.049z"/><path fill="#FFF" d="M33.895 21.948l6.085 11.87 5.985-11.854h15.753L39.91 67.607c-1.043-2.196-20.9-43.994-21.69-45.66h15.675z"/><path fill="#EE1E31" d="M34.274 21.344l5.702 11.105 5.607-11.105h17.119L49.615 48.678c-.943-4.883 1.208-7.516 1.208-7.516s-2.996-.44-5.534 1.957c-.461-.825-2.273-5.318-9.428-6.116 1.548 1.813 1.86 4.14 1.74 5.753-1.293-1.167-3.19-2.079-4.81-2.127.823 1.136.847 4.158.823 4.134-1.79-1.693-4.158-2.127-4.158-2.127.253 1.545.697 3.3.266 4.907-1.405-2.84-12.484-26.216-12.484-26.216l17.036.017z"/><path fill="#EE1E31" d="M39.982 55.215c-2.369 2.647-3.436 4.566-1.98 5 2.345.702 2.663-8.671 11.613-11.561l-9.707 20.395-3.875-8.24c.203-1.8 1.906-3.858 3.672-5.78 2.995-3.257 2.616-6.787.445-8.635-1.972-1.679-6.268-1.075-7.166 1.341.2.334.49-.43.774-.28.527.28-.81 1.126 0 1.55.328.155.357.284.62.34 1.177.248 1.124-1.217 2.554-1.259.768-.023 1.76.445 2.048 1.793.271 1.26-.222 2.705-2.093 4.175-.487.383-1.704.99-2.757 2.848l-.155-.403c1.108-2.422 5.284-3.28 4.65-6.576-.242-1.25-1.412-1.74-2.204-1.414-.898.371-.742 1.27-2.044 1.084-.891.832-1.823 1.872-2.848 2.57-.164.023-.039-.523-.032-.65.306-.981.611-1.79.96-2.756.26.342.154.899.11 1.49.267-.223.716-1.032.665-1.18-.527-.465-.887-.547-.744-1.023 1.084-3.592 6.314-3.477 7.918-1.873 2.96 2.96 1.948 6.395-.424 9.044"/><path fill="#000" d="M35.323 13.577v.992h-1.015v1.04h.858v.942h-.883v1.113h1.016v.967h-2.065v-5.054z"/><path fill="#000" d="M35.323 13.577v.992h-1.015v1.04h.858v.942h-.883v1.113h1.016v.967h-2.065v-5.054zM25.603 17.735v-3.173c.518-.012.938.61.938 1.614 0 1.296-.636 1.601-.938 1.56m-.943-4.142l-.076-.016-.012 5.053c1.156.01 2.96.34 2.985-2.48.022-2.465-1.55-2.643-2.897-2.557"/><path fill="#000" d="M25.603 17.735v-3.173c.518-.012.938.61.938 1.614 0 1.296-.636 1.601-.938 1.56m-.943-4.142l-.076-.016-.012 5.053c1.156.01 2.96.34 2.985-2.48.022-2.465-1.55-2.643-2.897-2.557M21.927 15.206l.598-1.629h1.09l-1.164 2.596-.024 2.458h-.992v-2.458l-1.196-2.596h1.098z"/><path fill="#000" d="M21.927 15.206l.598-1.629h1.09l-1.164 2.596-.024 2.458h-.992v-2.458l-1.196-2.596h1.098zM30.89 16.309v-2.678h1.049v5.034h-.951l-1.168-2.796v2.796h-1.011v-5.034h.971z"/><path fill="#000" d="M30.89 16.309v-2.678h1.049v5.034h-.951l-1.168-2.796v2.796h-1.011v-5.034h.971zM19.233 13.763a1.698 1.698 0 0 0-.879-.246c-.852 0-1.339.68-1.339 1.472 0 .733.38 1.111.953 1.497.28.2.575.387.575.773 0 .333-.26.465-.58.465-.292 0-.5-.066-.734-.226v.946c.227.166.573.253.852.253.933 0 1.446-.673 1.446-1.565 0-1.358-1.512-1.404-1.512-2.23 0-.307.172-.454.478-.454.274 0 .54.108.74.28v-.965z"/><path fill="#000" d="M19.233 13.763a1.698 1.698 0 0 0-.879-.246c-.852 0-1.339.68-1.339 1.472 0 .733.38 1.111.953 1.497.28.2.575.387.575.773 0 .333-.26.465-.58.465-.292 0-.5-.066-.734-.226v.946c.227.166.573.253.852.253.933 0 1.446-.673 1.446-1.565 0-1.358-1.512-1.404-1.512-2.23 0-.307.172-.454.478-.454.274 0 .54.108.74.28v-.965zm43.39 0a1.7 1.7 0 0 0-.88-.246c-.852 0-1.338.68-1.338 1.472 0 .733.379 1.111.952 1.497.28.2.575.387.575.773 0 .333-.26.465-.58.465-.292 0-.501-.066-.734-.226v.946c.226.166.573.253.852.253.933 0 1.445-.673 1.445-1.565 0-1.358-1.511-1.404-1.511-2.23 0-.307.173-.454.479-.454.273 0 .54.108.74.28v-.965z"/><path fill="#000" d="M62.622 13.763a1.7 1.7 0 0 0-.878-.246c-.853 0-1.34.68-1.34 1.472 0 .733.38 1.111.953 1.497.28.2.575.387.575.773 0 .333-.26.465-.58.465-.292 0-.501-.066-.734-.226v.946c.226.166.573.253.852.253.933 0 1.445-.673 1.445-1.565 0-1.358-1.511-1.404-1.511-2.23 0-.307.173-.454.479-.454.273 0 .54.108.74.28v-.965zm-17.746 0a1.696 1.696 0 0 0-.878-.246c-.853 0-1.34.68-1.34 1.472 0 .733.38 1.111.954 1.497.28.2.574.387.574.773 0 .333-.26.465-.58.465-.292 0-.501-.066-.734-.226v.946c.227.166.573.253.852.253.933 0 1.446-.673 1.446-1.565 0-1.358-1.512-1.404-1.512-2.23 0-.307.172-.454.48-.454.272 0 .538.108.738.28v-.965z"/><path fill="#000" d="M44.876 13.763a1.696 1.696 0 0 0-.878-.246c-.853 0-1.34.68-1.34 1.472 0 .733.38 1.111.954 1.497.28.2.574.387.574.773 0 .333-.26.465-.58.465-.292 0-.501-.066-.734-.226v.946c.227.166.573.253.852.253.933 0 1.446-.673 1.446-1.565 0-1.358-1.512-1.404-1.512-2.23 0-.307.172-.454.48-.454.272 0 .538.108.738.28v-.965zm8.169 3.215l.263-1.845.296 1.845h-.56zm.853-3.347H52.81l-1.168 5.034h1.05l.197-.854h.912l.216.854h1.078l-1.196-5.034z"/><path fill="#000" d="M53.045 16.978l.263-1.845.296 1.845h-.56zm.853-3.347H52.81l-1.168 5.034h1.05l.197-.854h.912l.216.854h1.078l-1.196-5.034zM58.205 16.309v-2.678h1.05v5.034h-.951l-1.169-2.796v2.796h-1.011v-5.034h.972z"/><path fill="#000" d="M58.205 16.309v-2.678h1.05v5.034h-.951l-1.169-2.796v2.796h-1.011v-5.034h.972zM47.099 13.631l.539 3.21.538-3.21h.885l.617 3.21.433-3.21h1.098l-1.051 5.034h-.892l-.617-3.346-.697 3.346h-.912l-.991-5.034z"/><path fill="#000" d="M47.099 13.631l.539 3.21.538-3.21h.885l.617 3.21.433-3.21h1.098l-1.051 5.034h-.892l-.617-3.346-.697 3.346h-.912l-.991-5.034zM37.845 15.206l.599-1.629h1.089l-1.164 2.596-.024 2.458h-.991v-2.458l-1.197-2.596h1.099z"/><path fill="#000" d="M37.845 15.206l.599-1.629h1.089l-1.164 2.596-.024 2.458h-.991v-2.458l-1.197-2.596h1.099z"/><path d="M0 0h80v80H0z"/></g></svg>