<svg width="588" height="73" xmlns="http://www.w3.org/2000/svg" xmlns:xlink="http://www.w3.org/1999/xlink"><defs><path id="a" d="M76.9689.00036H.5211V66.888h76.4478V.00036z"/><path id="c" d="M79.35669 66.88836h4.779v-4.77603h-4.779v4.77603z"/></defs><g fill="none" fill-rule="evenodd"><path d="M51.1727612 62.3h-16.8795v-7.623h3.4155v-6.3855c0-5.1975.198-10.5435.2475-14.058-.9405 3.168-2.5245 8.8605-4.2075 14.058l-2.97 9.306h-9.6525l-3.0195-9.306c-1.683-5.148-3.2175-10.89-4.158-14.058.099 3.6135.2475 8.8605.2475 14.058v6.3855h3.4155V62.3H2.71226123v-7.623h3.3165V33.689h-3.3165v-7.821H21.1262612l3.663 11.187c1.188 3.663 1.98 6.435 2.5245 9.009.6435-2.574 1.2375-5.247 2.4255-8.9595l3.5145-11.2365h17.919v7.821h-3.3165v20.988h3.3165V62.3zm44.8802143 0h-19.404v-7.128h5.445l-1.5345-3.861h-12.771l-1.584 3.861h5.049V62.3h-17.028v-7.623h3.3165l11.781-29.0565h11.385l11.88 29.0565h3.465V62.3zm-17.5725-16.632l-.8415-2.1285c-.99-2.475-2.772-7.425-3.4155-9.1575-.6435 1.782-2.574 6.93-3.465 9.1575l-.8415 2.1285h8.5635zm53.5922145-6.4845h-8.91v-6.534h-5.148v22.077h4.158V62.3h-18.513v-7.623h4.158V32.6h-5.148v6.534h-8.9100003V25.868H132.07269v13.3155zm36.069214 22.077c-1.782.495-8.3655 1.485-15.4935 1.485-12.078 0-18.117-3.564-18.117-18.6615s6.3855-18.6615 18.216-18.6615c7.128 0 13.6125.99 15.3945 1.485v12.276h-9.6525V33.59c-1.1385-.1485-3.9105-.297-5.841-.297-6.138 0-7.425 3.069-7.425 9.2565v2.871c0 6.039 1.2375 9.6525 7.524 9.6525 2.0295 0 4.6035-.099 5.742-.297v-6.4845h9.6525v12.969zM212.923118 62.3h-17.4735v-7.623h3.9105v-7.4745h-13.2165v7.4745h3.9105V62.3h-17.4735v-7.623h3.3165V33.689h-3.3165v-7.821h17.4735v7.821h-3.9105v6.633h13.2165v-6.633h-3.9105v-7.821h17.4735v7.821h-3.3165v20.988h3.3165V62.3zM381.300763 61.2605c-1.782.495-8.3655 1.485-15.4935 1.485-12.078 0-18.117-3.564-18.117-18.6615s6.3855-18.6615 18.216-18.6615c7.128 0 13.6125.99 15.3945 1.485v12.276h-9.6525V33.59c-1.1385-.1485-3.9105-.297-5.841-.297-6.138 0-7.425 3.069-7.425 9.2565v2.871c0 6.039 1.2375 9.6525 7.524 9.6525 2.0295 0 4.6035-.099 5.742-.297v-6.4845h9.6525v12.969zM419.943978 62.3h-34.2045v-7.623h3.3165V33.689h-3.3165v-7.821h34.2045v13.3155h-9.6525V33.194h-10.989v7.3755h7.623V47.45h-7.623v7.722h10.989v-6.8805h9.6525V62.3zm44.632714-28.611h-3.168V62.3h-9.6525l-15.939-24.255c.2475 2.079.3465 6.633.3465 9.702v6.93h4.1085V62.3h-15.8895v-7.623h3.3165V33.689h-3.3165v-7.821h14.652l14.256 21.681c-.297-2.2275-.3465-5.247-.3465-9.405v-4.455h-3.8115v-7.821h15.444v7.821zm41.365714 5.4945h-8.91v-6.534h-5.148v22.077h4.158V62.3h-18.513v-7.623h4.158V32.6h-5.148v6.534h-8.91V25.868h38.313v13.3155zM547.060621 62.3h-14.8005v-6.732l-4.653-6.435h-5.1975v6.039h4.455V62.3h-17.8695v-7.623h3.3165V33.689h-3.3165v-7.821h21.483c8.217 0 13.9095.7425 13.9095 11.682 0 5.742-1.782 8.6625-6.039 10.1475l5.0985 6.9795h3.6135V62.3zm-12.9195-24.5025c0-3.663-1.5345-4.653-3.762-4.653h-7.9695v9.5535h8.0685c2.2275 0 3.663-1.2375 3.663-4.9005zM584.317835 62.3h-34.2045v-7.623h3.3165V33.689h-3.3165v-7.821h34.2045v13.3155h-9.6525V33.194h-10.989v7.3755h7.623V47.45h-7.623v7.722h10.989v-6.8805h9.6525V62.3z" fill="#FFF"/><g transform="translate(241.764844 1.278125)"><mask id="b" fill="#fff"><use xlink:href="#a"/></mask><path d="M55.4706 0C48.7161 0 42.687 8.9991 38.7459 23.0715 34.8057 8.9991 28.7766 0 22.0239 0 10.1502 0 .5211 29.9466.5211 66.888h9.5598c0-34.3008 5.3478-62.1108 11.943-62.1108 6.5952 0 11.9466 25.6716 11.9466 57.3354h9.5553c0-31.6638 5.3451-57.3354 11.9448-57.3354 6.5952 0 11.9412 27.81 11.9412 62.1108h9.5571C76.9689 29.9466 67.3425 0 55.4706 0" fill="#FFC836" mask="url(#b)"/><mask id="d" fill="#fff"><use xlink:href="#c"/></mask><path d="M81.75429 66.53763c-1.1133 0-1.9638-.8811-1.9638-2.0475 0-1.1466.8505-2.0277 1.9638-2.0277 1.0962 0 1.9503.8811 1.9503 2.0277 0 1.1664-.8541 2.0475-1.9503 2.0475m0-4.4253c-1.3005 0-2.3976 1.026-2.3976 2.3778 0 1.368 1.0971 2.3985 2.3976 2.3985 1.2933 0 2.3814-1.0305 2.3814-2.3985 0-1.3518-1.0881-2.3778-2.3814-2.3778" fill="#FFC836" mask="url(#d)"/><path d="M81.71037 64.33947h-.4545v-.8856h.5733c.2916 0 .6102.0558.6102.4248 0 .4446-.3492.4608-.729.4608m1.1601-.441c0-.5337-.3114-.7965-.9684-.7965h-1.0773v2.7927h.4311v-1.2006h.4608l.7542 1.2006h.4653l-.7947-1.2348c.4149-.045.729-.2547.729-.7614" fill="#FFC836" mask="url(#d)"/></g></g></svg>