<svg xmlns="http://www.w3.org/2000/svg" xmlns:xlink="http://www.w3.org/1999/xlink" version="1.1" width="42" height="42" preserveAspectRatio="xMidyMid meet" style="" xml:space="preserve">
	<rect id="backgroundrect" width="100%" height="100%" x="0" y="0" fill="none" stroke="none" class="" style=""/>

	<g class="currentLayer" style="">
		<title>Layer 1</title>
		<g id="svg_1" class="" stroke-opacity="1" stroke="#757d84" fill-opacity="1" fill="#757d84">
			<path d="M37.45902324521521,28.39000438950611 c-0.3416207449746115,-0.00854051862436527 -0.6832414899492207,-0.00854051862436527 -1.0590243094212917,-0.00854051862436527 c-0.5551337105837417,0 -1.0418578669863177,0.00854051862436527 -1.5202123151370142,0.03416207449746101 l0.4868095615888204,2.673096924240081 c0.017081037248730568,0.1111121473029922 0.11956726074111394,0.1879768149222794 0.23059400285786213,0.1879768149222794 h2.3657236589491757 c0.11102674211674857,0 0.2048870417985227,-0.07686466761928742 0.23050859767161833,-0.1879768149222794 l0.5551337105837417,-2.6988038852994207 c-0.14510341142796612,0 -0.2818371146040538,0 -0.427025931218264,0 C38.04840443548265,28.398459502944224 37.76648191569236,28.398459502944224 37.45902324521521,28.39000438950611 z" id="svg_2" stroke="#757d84" fill="#757d84"/>
			<path d="M29.055152918839795,31.131425462741102 c0.017081037248730568,0.1111121473029922 0.11956726074111394,0.1879768149222794 0.23059400285786213,0.1879768149222794 h2.3657236589491757 c0.11102674211674857,0 0.2049724469847664,-0.07686466761928742 0.23059400285786213,-0.1879768149222794 l0.529512154710644,-2.613398699055768 c-1.05056919598317,0.042702593121826414 -2.357268545511054,0.08540518624365288 -3.8005307878425385,0.12810777936547887 L29.055152918839795,31.131425462741102 z" id="svg_3" stroke="#757d84" fill="#757d84"/>
			<path d="M10.701578395078863,31.49875316877506 c0.017081037248730568,0.11102674211674857 0.11956726074111394,0.18780600454979254 0.23059400285786213,0.18780600454979254 h2.3657236589491757 c0.11102674211674857,0 0.2049724469847664,-0.07677926243304387 0.23059400285786213,-0.18780600454979254 l0.4953500802131852,-2.4340478079440975 c-1.4945907592639198,0.03416207449746101 -2.7842090715430734,0.05969822518431335 -3.7492876760963467,0.07686466761928742 L10.701578395078863,31.49875316877506 z" id="svg_4" stroke="#757d84" fill="#757d84"/>
			<path d="M4.757377432520647,28.603517355115237 l0.529512154710644,2.8952358136598217 c0.017081037248730568,0.11102674211674857 0.11956726074111394,0.18780600454979254 0.23059400285786213,0.18780600454979254 h2.3657236589491757 c0.11102674211674857,0 0.2049724469847664,-0.07677926243304387 0.23059400285786213,-0.18780600454979254 l0.4868095615888204,-2.3657236589491757 c-1.263996756406058,-0.05978363037055705 -2.579236624558307,-0.3075440756633933 -3.7919902692181733,-0.7088630458223152 C4.76591795114501,28.483864689187875 4.74883691389628,28.543733724744683 4.757377432520647,28.603517355115237 z" id="svg_5" stroke="#757d84" fill="#757d84"/>
			<path d="M37.886049176433474,11.667668922998937 c-0.9138354928070826,0 -0.8284303065634306,2.767128034294343 -2.7756685529187077,3.4759910801166587 c-0.939457048680179,0.3416207449746115 -1.8447520228628953,0.4782690429644543 -2.6390202549288637,0.4782690429644543 c-1.4177260916446328,0 -2.5023719569390197,-0.4184854125938978 -2.9037763322841865,-0.8113492693146996 c-0.6319129730167857,-0.614917340954299 5.107315542556666,-2.553615068685211 3.8773954554618264,-4.219016200436436 l-1.8789140973603562,-2.5194529941877493 c-0.12810777936547887,-0.17081037248730566 -0.3245397077258805,-0.26475607735532336 -0.5209716360862819,-0.26475607735532336 c-0.12810777936547887,0 -0.25621555873095775,0.042702593121826414 -0.37578281947207237,0.12810777936547887 l-6.302902744781558,4.628961094405968 c0,0 -2.408426252071002,0 -2.8269116646649,1.4091855730202678 c0,0 -0.06840955418116576,-0.00854051862436527 -0.1879768149222794,-0.00854051862436527 c-0.5209716360862819,0 -1.9386123225446694,0.11102674211674857 -2.322935660641106,1.2981588309035181 c0,0 -5.9698225184313145,1.1785915701624061 -9.531218784791625,3.0916677420202228 c-3.552855747735946,1.9046210584196972 -8.993166111456613,1.7935089111167035 -8.993166111456613,4.825393022766369 s4.816852504142004,5.055987025624231 8.634464329233273,5.055987025624231 c3.817611825091269,0 22.973995099542535,-0.5807552664568396 25.655717947593224,-0.7345700068816563 c0.5722147478324723,-0.03407666931121755 1.1102674211674832,-0.042702593121826414 1.6141580200050334,-0.042702593121826414 c0.7173181592604381,0 1.3578570560878325,0.017166442434974175 1.9216166904821823,0.017166442434974175 c2.0326434325989307,0 3.083127223395857,-0.25621555873095775 3.117289297893318,-2.5878625483689155 c0.05124311174619173,-3.4332030818085886 0.4697285243400893,-8.74549107135002 -2.143755579901923,-12.067752816228106 C38.629074296753245,11.992208630724818 38.19350784691062,11.667668922998937 37.886049176433474,11.667668922998937 zM25.45959457798202,25.059202126003658 h-3.1599918910151454 c-0.05978363037055705,0 -0.11102674211674857,-0.025621555873095843 -0.1537293352385747,-0.05969822518431335 l-6.8580364553652995,-6.2772811889084625 c-0.1366482979898442,-0.12810777936547887 -0.07686466761928742,-0.3501612635989758 0.09394570486801815,-0.3928638567208028 l2.3913452148222714,-0.6405388968273946 c0.07686466761928742,-0.017081037248730568 0.16226985386294052,0 0.21351296560913172,0.05124311174619173 l7.635138244996295,6.9178200857358565 C25.775593767083542,24.794446048648336 25.673107543591154,25.059202126003658 25.45959457798202,25.059202126003658 zM31.83936199038287,25.05066160737929 l-3.3308022635024495,-0.042702593121826414 c-0.05978363037055705,0 -0.11102674211674857,-0.02570696105933945 -0.1537293352385747,-0.05978363037055705 l-8.506441955054036,-7.712088317801826 c-0.1366482979898442,-0.12810777936547887 -0.08540518624365288,-0.3501612635989758 0.09394570486801815,-0.4014043753451679 l2.382804696197906,-0.6405388968273946 c0.07686466761928742,-0.017081037248730568 0.1538147404248184,0 0.21351296560913172,0.05124311174619173 l9.462894635796703,8.395244402564801 C32.15544658467062,24.78590553002397 32.052874955991996,25.05066160737929 31.83936199038287,25.05066160737929 z" id="svg_6" stroke="#757d84" fill="#757d84"/>
		</g>
		<g id="svg_7" class="">
		</g>
		<g id="svg_8" class="">
		</g>
		<g id="svg_9" class="">
		</g>
		<g id="svg_10" class="">
		</g>
		<g id="svg_11" class="">
		</g>
		<g id="svg_12" class="">
		</g>
		<g id="svg_13" class="">
		</g>
		<g id="svg_14" class="">
		</g>
		<g id="svg_15" class="">
		</g>
		<g id="svg_16" class="">
		</g>
		<g id="svg_17" class="">
		</g>
		<g id="svg_18" class="">
		</g>
		<g id="svg_19" class="">
		</g>
		<g id="svg_20" class="">
		</g>
		<g id="svg_21" class="">
		</g>
	</g>
</svg>